[2026-03-15 12:08:31] [INFO] Jarvis Desktop launcher started.
[2026-03-15 12:08:31] [INFO] Runtime log path: C:\Jarvis\logs\runtime_2026-03-15_12-08-31.txt
[2026-03-15 12:08:31] [INFO] Launcher executable: C:\Users\anden\AppData\Local\Python\pythoncore-3.14-64\pythonw.exe
[2026-03-15 12:08:31] [INFO] Root directory: C:\Jarvis
[2026-03-15 12:08:31] [INFO] Target script: C:\Jarvis\jarvis_desktop_test.py
[2026-03-15 12:08:31] [INFO] Diagnostics script: C:\Jarvis\desktop\jarvis_diagnostics.pyw
[2026-03-15 12:08:31] [INFO] Recovery attempts allowed: 3
[2026-03-15 12:08:31] [INFO] Voice hook ready: C:\Jarvis\jarvis_voice.py
[2026-03-15 12:08:31] [INFO] Starting desktop renderer process. attempt=1
[2026-03-15 12:08:31] [INFO] Child executable: C:\Users\anden\AppData\Local\Python\pythoncore-3.14-64\pythonw.exe
[2026-03-15 12:08:31] [STDOUT] Jarvis Desktop Concept 1 - Version 1.02
[2026-03-15 12:08:31] [STDOUT] Hotkey: Ctrl + Alt + End
[2026-03-15 12:08:31] [STDERR] Traceback (most recent call last):
[2026-03-15 12:08:31] [STDERR]   File "C:\Jarvis\jarvis_desktop_test.py", line 44, in <module>
[2026-03-15 12:08:31] [STDERR]     raise SystemExit(main())
[2026-03-15 12:08:31] [STDERR]                      ~~~~^^
[2026-03-15 12:08:31] [STDERR]   File "C:\Jarvis\jarvis_desktop_test.py", line 36, in main
[2026-03-15 12:08:31] [STDERR]     raise RuntimeError("Jarvis test crash triggered intentionally")
[2026-03-15 12:08:31] [STDERR] RuntimeError: Jarvis test crash triggered intentionally
[2026-03-15 12:08:31] [INFO] Desktop renderer exited. exit_code=1
[2026-03-15 12:08:31] [WARN] Recovery attempt 1/3
[2026-03-15 12:08:33] [INFO] Starting desktop renderer process. attempt=2
[2026-03-15 12:08:33] [INFO] Child executable: C:\Users\anden\AppData\Local\Python\pythoncore-3.14-64\pythonw.exe
[2026-03-15 12:08:33] [STDOUT] Jarvis Desktop Concept 1 - Version 1.02
[2026-03-15 12:08:33] [STDOUT] Hotkey: Ctrl + Alt + End
[2026-03-15 12:08:33] [STDERR] Traceback (most recent call last):
[2026-03-15 12:08:33] [STDERR]   File "C:\Jarvis\jarvis_desktop_test.py", line 44, in <module>
[2026-03-15 12:08:33] [STDERR]     raise SystemExit(main())
[2026-03-15 12:08:33] [STDERR]                      ~~~~^^
[2026-03-15 12:08:33] [STDERR]   File "C:\Jarvis\jarvis_desktop_test.py", line 36, in main
[2026-03-15 12:08:33] [STDERR]     raise RuntimeError("Jarvis test crash triggered intentionally")
[2026-03-15 12:08:33] [STDERR] RuntimeError: Jarvis test crash triggered intentionally
[2026-03-15 12:08:33] [INFO] Desktop renderer exited. exit_code=1
[2026-03-15 12:08:33] [WARN] Recovery attempt 2/3
[2026-03-15 12:08:34] [INFO] Starting desktop renderer process. attempt=3
[2026-03-15 12:08:34] [INFO] Child executable: C:\Users\anden\AppData\Local\Python\pythoncore-3.14-64\pythonw.exe
[2026-03-15 12:08:34] [STDOUT] Jarvis Desktop Concept 1 - Version 1.02
[2026-03-15 12:08:34] [STDOUT] Hotkey: Ctrl + Alt + End
[2026-03-15 12:08:34] [STDERR] Traceback (most recent call last):
[2026-03-15 12:08:34] [STDERR]   File "C:\Jarvis\jarvis_desktop_test.py", line 44, in <module>
[2026-03-15 12:08:34] [STDERR]     raise SystemExit(main())
[2026-03-15 12:08:34] [STDERR]                      ~~~~^^
[2026-03-15 12:08:34] [STDERR]   File "C:\Jarvis\jarvis_desktop_test.py", line 36, in main
[2026-03-15 12:08:34] [STDERR]     raise RuntimeError("Jarvis test crash triggered intentionally")
[2026-03-15 12:08:34] [STDERR] RuntimeError: Jarvis test crash triggered intentionally
[2026-03-15 12:08:34] [INFO] Desktop renderer exited. exit_code=1
[2026-03-15 12:08:34] [ERROR] Crash log written: C:\Jarvis\logs\crash\crash_2026-03-15_12-08-34.txt
[2026-03-15 12:08:34] [INFO] Trying voice line 'Uhm..... Sir, I seem to be malfunctioning.' using voice --text --mode
[2026-03-15 12:08:41] [VOICE_STDERR] Input #0, wav, from 'C:/Users/anden/AppData/Local/Temp/tmp7poeisuq.wav':
[2026-03-15 12:08:41] [VOICE_STDERR]   Metadata:
[2026-03-15 12:08:41] [VOICE_STDERR]     encoder         : Lavf62.13.100
[2026-03-15 12:08:41] [VOICE_STDERR]   Duration: 00:00:05.22, bitrate: 384 kb/s
[2026-03-15 12:08:41] [VOICE_STDERR]   Stream #0:0: Audio: pcm_s16le ([1][0][0][0] / 0x0001), 24000 Hz, 1 channels, s16, 384 kb/s
[2026-03-15 12:08:41] [INFO] Voice line completed: Uhm..... Sir, I seem to be malfunctioning.
[2026-03-15 12:08:41] [INFO] Failure voice step 1/3 success=True line=Uhm..... Sir, I seem to be malfunctioning.
[2026-03-15 12:08:42] [INFO] Trying voice line 'Attempting restart.' using voice --text --mode
[2026-03-15 12:08:46] [VOICE_STDERR] Input #0, wav, from 'C:/Users/anden/AppData/Local/Temp/tmpmp189g3d.wav':
[2026-03-15 12:08:46] [VOICE_STDERR]   Metadata:
[2026-03-15 12:08:46] [VOICE_STDERR]     encoder         : Lavf62.13.100
[2026-03-15 12:08:46] [VOICE_STDERR]   Duration: 00:00:02.74, bitrate: 384 kb/s
[2026-03-15 12:08:46] [VOICE_STDERR]   Stream #0:0: Audio: pcm_s16le ([1][0][0][0] / 0x0001), 24000 Hz, 1 channels, s16, 384 kb/s
[2026-03-15 12:08:46] [INFO] Voice line completed: Attempting restart.
[2026-03-15 12:08:46] [INFO] Failure voice step 2/3 success=True line=Attempting restart.
[2026-03-15 12:08:47] [INFO] Trying voice line 'Restart failed.' using voice --text --mode
[2026-03-15 12:08:52] [VOICE_STDERR] Input #0, wav, from 'C:/Users/anden/AppData/Local/Temp/tmpntk45ewf.wav':
[2026-03-15 12:08:52] [VOICE_STDERR]   Metadata:
[2026-03-15 12:08:52] [VOICE_STDERR]     encoder         : Lavf62.13.100
[2026-03-15 12:08:52] [VOICE_STDERR]   Duration: 00:00:02.65, bitrate: 384 kb/s
[2026-03-15 12:08:52] [VOICE_STDERR]   Stream #0:0: Audio: pcm_s16le ([1][0][0][0] / 0x0001), 24000 Hz, 1 channels, s16, 384 kb/s
[2026-03-15 12:08:52] [INFO] Voice line completed: Restart failed.
[2026-03-15 12:08:52] [INFO] Failure voice step 3/3 success=True line=Restart failed.
[2026-03-15 12:08:52] [INFO] Diagnostics process launched.
